<svg width="19" height="15" viewBox="0 0 19 15" fill="none" xmlns="http://www.w3.org/2000/svg">
<path d="M18.0888 1.67202C17.4434 1.95586 16.7501 2.14774 16.0212 2.23399C16.7651 1.79253 17.335 1.09298 17.6041 0.260398C16.9092 0.669252 16.1387 0.966211 15.3175 1.12613C14.6612 0.432845 13.7253 0 12.6898 0C10.7024 0 9.0905 1.59669 9.0905 3.56742C9.0905 3.84666 9.12224 4.11907 9.18325 4.38062C6.19136 4.23161 3.53885 2.81137 1.76339 0.65332C1.45336 1.18038 1.27591 1.79317 1.27591 2.447C1.27591 3.68452 1.91152 4.7764 2.87731 5.41599C2.28724 5.39776 1.73225 5.23724 1.2465 4.96998C1.2465 4.98481 1.2465 4.99968 1.2465 5.01506C1.2465 6.74368 2.48719 8.18505 4.13412 8.51286C3.83158 8.59501 3.51408 8.63793 3.18561 8.63793C2.95338 8.63793 2.72806 8.61614 2.50795 8.57512C2.96606 9.99195 4.29555 11.0233 5.87037 11.0524C4.63833 12.0095 3.0859 12.58 1.39979 12.58C1.10938 12.58 0.822358 12.5629 0.540588 12.5292C2.13395 13.5417 4.02581 14.1328 6.05884 14.1328C12.68 14.1328 16.3012 8.69677 16.3012 3.98263C16.3012 3.82787 16.2978 3.67425 16.2903 3.52119C16.9956 3.01573 17.6065 2.3876 18.0888 1.67202Z" fill="#090909"/>
</svg>
